<?xml version="1.0" encoding="UTF-8" standalone="no"?>
<svg
   xmlns:dc="http://purl.org/dc/elements/1.1/"
   xmlns:cc="http://creativecommons.org/ns#"
   xmlns:rdf="http://www.w3.org/1999/02/22-rdf-syntax-ns#"
   xmlns:svg="http://www.w3.org/2000/svg"
   xmlns="http://www.w3.org/2000/svg"
   xmlns:sodipodi="http://sodipodi.sourceforge.net/DTD/sodipodi-0.dtd"
   xmlns:inkscape="http://www.inkscape.org/namespaces/inkscape"
   inkscape:version="1.0 (4035a4fb49, 2020-05-01)"
   sodipodi:docname="hla_icon.svg"
   viewBox="0 0 392.95999 340.48001"
   height="340.48001"
   width="392.95999"
   id="svg10"
   version="1.1">
  <metadata
     id="metadata16">
    <rdf:RDF>
      <cc:Work
         rdf:about="">
        <dc:format>image/svg+xml</dc:format>
        <dc:type
           rdf:resource="http://purl.org/dc/dcmitype/StillImage" />
        <dc:title></dc:title>
      </cc:Work>
    </rdf:RDF>
  </metadata>
  <defs
     id="defs14" />
  <sodipodi:namedview
     inkscape:current-layer="g18"
     inkscape:window-maximized="0"
     inkscape:window-y="0"
     inkscape:window-x="0"
     inkscape:cy="149.91284"
     inkscape:cx="196.48"
     inkscape:zoom="1.3914519"
     showgrid="false"
     id="namedview12"
     inkscape:window-height="780"
     inkscape:window-width="1286"
     inkscape:pageshadow="2"
     inkscape:pageopacity="0"
     guidetolerance="10"
     gridtolerance="10"
     objecttolerance="10"
     borderopacity="1"
     bordercolor="#666666"
     pagecolor="#ffffff" />
  <g
     id="g18"
     inkscape:label="Image"
     inkscape:groupmode="layer">
    <path
       id="path22"
       d="m 290.22938,221.59734 v -28.8 c 0,-3.45888 0.97568,-8.99584 -0.64896,-12.1552 -1.2176,-2.368 -4.73408,-4.37248 -6.71104,-6.13792 -6.59488,-5.88897 -15.65632,-11.03297 -20.92384,-18.18689 -5.11712,-6.94912 1.4288,-16.65152 9.72384,-15.25568 7.13536,1.20064 12.02912,10.02944 18.24,13.33568 0,-5.5552 -1.64448,-14.25952 1.17888,-19.2 4.06976,-7.12192 14.35072,-6.57056 17.64544,0.96 2.32832,5.32224 0.69568,14.07872 0.69568,19.84 4.09856,-2.79104 7.77216,-6.12928 11.52,-9.37248 2.29472,-1.9856 4.5392,-4.39488 7.68,-4.9232 8.1184,-1.36608 14.6752,7.94336 9.9456,14.93568 -1.8368,2.71968 -4.8992,4.76576 -7.3856,6.86048 -4.7008,3.9616 -9.45792,7.87424 -14.08,11.92833 -2.06784,1.81376 -6.19424,4.17696 -7.16704,6.8112 -0.91168,2.4688 -0.19296,6.33984 -0.19296,8.96 v 20.48 c 0,2.36096 1.09856,8.57984 -0.51296,10.3968 -0.92896,1.04736 -2.98848,1.25728 -4.28704,1.5056 -5.28768,1.01184 -9.64,-1.23424 -14.72,-1.3424 0,17.81632 0.32,35.64832 0.32,53.44 0,10.34528 -0.80352,21.05152 0.0298,31.36 0.69312,8.57376 12.38336,11.0736 17.44864,4.79872 2.24672,-2.78304 2.0416,-5.9152 2.0416,-9.27872 v -14.72 c 0,-15.05856 -0.32,-30.064 -0.32,-45.12 v -13.12 c 0,-1.95456 -0.424,-4.47776 0.10176,-6.3664 0.42784,-1.53664 2.81888,-2.0544 4.05824,-2.7872 3.23392,-1.91264 5.98944,-4.19488 8.64,-6.8464 7.3312,-7.33344 12.4576,-16.65632 16.256,-26.24 8.7168,-22.01057 11.9872,-46.55585 10.9568,-70.08001 -0.8704,-19.874221 -3.5712,-39.63614 -11.0848,-58.23998 -6.1664,-15.265921 -19.14976,-37.684737 -38.528,-36.451105 -20.62592,1.313024 -32.89888,23.558624 -38.92992,40.931105 -13.17024,37.93663 -13.74944,83.5363 0.59136,121.27999 4.0656,10.69984 9.37376,20.95776 17.53856,29.12 2.99168,2.99072 6.72256,6.45696 10.88,7.68 m -128.31999,28.48 v -18.24 c 0,-2.74496 0.56384,-6.35072 -0.50848,-8.9472 -0.66016,-1.59872 -3.05632,-3.10368 -4.3504,-4.26432 -4.32544,-3.87872 -10.47264,-7.09472 -13.87616,-11.8528 -3.096,-4.328 0.55104,-11.5344 6.25504,-10.33056 4.78752,1.01056 7.95168,6.58304 12.16,8.83488 0,-3.7392 -0.98784,-9.11008 0.84768,-12.48 2.5984,-4.77056 9.36224,-4.63232 11.70624,0.32 1.68768,3.56512 0.56608,9.55424 0.56608,13.44 h 0.32 c 2.27424,-2.952 8.4672,-8.67072 12.16,-9.4752 4.20416,-0.91552 8.3824,2.53824 7.94304,6.9152 -0.32128,3.2016 -3.376,5.38656 -5.70752,7.2528 -4.28256,3.42784 -10.86592,7.3984 -13.88704,11.97696 -1.0192,1.54464 -0.50848,4.27584 -0.50848,6.05024 v 14.72 c 0,1.64544 0.55456,4.55904 -0.32896,6.00704 -0.83392,1.3664 -3.66624,1.63104 -5.11104,1.66816 -2.70816,0.0698 -5.04352,-1.0128 -7.68,-1.2752 0,11.84224 0.32,23.70304 0.32,35.52 0,7.03808 -0.66272,14.43936 0.0336,21.44 0.55392,5.56704 8.4384,6.85216 11.5824,2.77568 2.72992,-3.5392 1.184,-11.59712 1.184,-15.89568 v -29.44 c 0,-4.03872 -0.97984,-9.52128 0.10176,-13.4064 0.34656,-1.2448 1.78144,-1.60224 2.77824,-2.19584 1.98464,-1.18176 3.80736,-2.60768 5.43872,-4.23904 4.7824,-4.78208 8.36544,-10.99392 10.79776,-17.27872 10.22623,-26.42304 10.54399,-58.26529 0.47552,-84.80001 -4.41952,-11.64672 -13.10432,-25.95584 -27.272,-25.2672 -14.02016,0.6816 -21.91136,18.47616 -25.65344,29.7472 -8.06112,24.28192 -7.47232,52.32353 0.64032,76.48001 3.2272,9.6096 9.38784,22.46048 19.57312,26.24 m -97.6,28.16 c 0,-3.7248 1.210559,-9.94144 -0.19296,-13.3856 -1.51008,-3.70528 -7.04832,-5.30144 -9.1696,-8.69568 -1.31136,-2.09856 0.41856,-5.0688 2.96256,-4.71936 2.46048,0.33792 4.3216,3.19904 6.4,4.40064 0,-1.87168 -0.52224,-4.6912 0.37728,-6.38624 1.395519,-2.63008 4.794559,-1.94976 5.785279,0.62656 0.6704,1.74368 0.23744,4.23296 0.23744,6.07968 2.11776,-1.224 3.97888,-4.01408 6.4,-4.56096 2.41088,-0.54464 4.55104,2.49344 3.28224,4.56096 -2.22176,3.62016 -7.45344,5.17888 -9.35328,8.96032 -1.7968,3.57632 1.59008,9.71456 -0.65792,12.9808 -1.09216,1.58688 -4.5088,0.58208 -6.071039,0.45888 0,9.0176 -0.50592,18.19872 0.01376,27.2 0.17248,2.98368 3.607999,5.25152 5.857279,2.49152 1.55616,-1.90944 0.84896,-5.62592 0.84896,-7.93152 0,-6.35776 -1.8576,-14.6224 -0.21824,-20.78624 0.4624,-1.73824 3.13024,-2.664 4.34944,-3.88256 2.36672,-2.36608 4.03008,-5.53664 5.27552,-8.6112 5.24096,-12.9376 5.29088,-29.55776 0.25376,-42.56 -2.09696,-5.41312 -6.15488,-12.69088 -12.86048,-12.69088 -7.694719,0 -11.736959,9.12832 -13.759679,15.25088 -3.92128,11.86944 -3.66208,26.29504 0.42976,38.08 1.76608,5.0864 4.62848,10.85504 9.80992,13.12 z"
       style="fill:#010101;stroke:none;stroke-width:0.32" />
  </g>
</svg>
